# Blender 5.0.0
# www.blender.org
mtllib paraszight.mtl
o Body
v 0.587007 0.915842 0.494037
v 0.587007 1.915842 0.494037
v -0.412923 0.915842 0.505893
v -0.412923 1.915842 0.505893
v 0.575151 0.915842 -0.505893
v 0.575151 1.915842 -0.505893
v -0.424779 0.915842 -0.494037
v -0.424778 1.915842 -0.494037
v 0.088341 0.806274 0.609525
v 0.697866 1.415842 0.602298
v 0.088341 2.025410 0.609525
v -0.521184 1.415842 0.616752
v -0.528411 0.806274 0.007227
v -0.528411 2.025410 0.007227
v -0.535638 1.415842 -0.602298
v 0.073887 0.806274 -0.609525
v 0.073887 2.025410 -0.609525
v 0.683412 1.415842 -0.616752
v 0.690639 0.806274 -0.007227
v 0.690639 2.025410 -0.007227
v 0.091067 1.415842 0.839447
v -0.758333 1.415842 0.009953
v 0.071161 1.415842 -0.839447
v 0.920562 1.415842 -0.009953
v 0.081114 0.576335 -0.000000
v 0.081114 2.255348 0.000000
vn 0.3167 -0.3061 0.8978
vn 0.3167 0.3061 0.8978
vn -0.2953 0.3061 0.9050
vn -0.2953 -0.3061 0.9050
vn -0.8978 -0.3061 0.3167
vn -0.8978 0.3061 0.3167
vn -0.9050 0.3061 -0.2953
vn -0.9050 -0.3061 -0.2953
vn -0.3167 -0.3061 -0.8978
vn -0.3167 0.3061 -0.8978
vn 0.2953 0.3061 -0.9050
vn 0.2953 -0.3061 -0.9050
vn 0.8978 -0.3061 -0.3167
vn 0.8978 0.3061 -0.3167
vn 0.9050 0.3061 0.2953
vn 0.9050 -0.3061 0.2953
vn -0.3024 -0.9015 0.3097
vn -0.3097 -0.9015 -0.3024
vn 0.3024 -0.9015 -0.3097
vn 0.3097 -0.9015 0.3024
vn -0.3097 0.9015 -0.3024
vn -0.3024 0.9015 0.3097
vn 0.3097 0.9015 0.3024
vn 0.3024 0.9015 -0.3097
vt 0.760311 0.544070
vt 0.735433 0.538430
vt 0.750632 0.506628
vt 0.779340 0.527079
vt 0.583246 0.529820
vt 0.564217 0.546811
vt 0.539339 0.541171
vt 0.554538 0.509369
vt 0.494213 0.505585
vt 0.522920 0.526036
vt 0.503892 0.543027
vt 0.479013 0.537387
vt 0.828292 0.567618
vt 0.796490 0.552419
vt 0.816941 0.523711
vt 0.833932 0.542739
vt 0.847772 0.506628
vt 0.855655 0.537123
vt 0.583237 0.573035
vt 0.608115 0.578675
vt 0.613732 0.600399
vt 0.583237 0.608282
vt 0.472910 0.542971
vt 0.503405 0.535087
vt 0.509021 0.556811
vt 0.489993 0.573802
vt 0.883019 0.506628
vt 0.877379 0.531507
vt 0.914820 0.521828
vt 0.894370 0.550535
vt 0.495364 0.607249
vt 0.514392 0.590258
vt 0.539271 0.595898
vt 0.524071 0.627699
vt 0.585129 0.627699
vt 0.556421 0.607249
vt 0.575449 0.590258
vt 0.600328 0.595898
vt 0.796422 0.593157
vt 0.781223 0.624958
vt 0.752516 0.604508
vt 0.771544 0.587517
vt 0.735433 0.573677
vt 0.765928 0.565793
vt 0.476522 0.540886
vt 0.501785 0.537346
vt 0.514733 0.555671
vt 0.489010 0.573847
vt 0.481285 0.573420
vt 0.511791 0.565578
vt 0.517377 0.587310
vt 0.498325 0.604274
vt 0.576780 0.427083
vt 0.598504 0.421466
vt 0.606387 0.451961
vt 0.571140 0.451961
vt 0.620227 0.415850
vt 0.637218 0.434878
vt 0.539271 0.442253
vt 0.539271 0.477500
vt 0.514392 0.471860
vt 0.508776 0.450137
vt 0.522188 0.411422
vt 0.503160 0.428413
vt 0.508776 0.568534
vt 0.539271 0.560651
vt 0.519030 0.568046
vt 0.513414 0.546322
vt 0.532442 0.529332
vt 0.549525 0.560162
vt 0.539339 0.576418
vt 0.569833 0.568534
s 0
usemtl Material.001
f 1/1/1 10/2/1 21/3/1 9/4/1
f 10/5/2 2/6/2 11/7/2 21/8/2
f 21/9/3 11/10/3 4/11/3 12/12/3
f 9/13/4 21/14/4 12/15/4 3/16/4
f 3/16/5 12/15/5 22/17/5 13/18/5
f 12/19/6 4/20/6 14/21/6 22/22/6
f 22/23/7 14/24/7 8/25/7 15/26/7
f 13/18/8 22/17/8 15/27/8 7/28/8
f 7/28/9 15/27/9 23/29/9 16/30/9
f 15/31/10 8/32/10 17/33/10 23/34/10
f 23/35/11 17/36/11 6/37/11 18/38/11
f 16/39/12 23/40/12 18/41/12 5/42/12
f 5/42/13 18/41/13 24/43/13 19/44/13
f 18/45/14 6/46/14 20/47/14 24/48/14
f 24/49/15 20/50/15 2/51/15 10/52/15
f 19/44/16 24/43/16 10/2/16 1/1/16
f 3/53/17 13/54/17 25/55/17 9/56/17
f 13/54/18 7/57/18 16/58/18 25/55/18
f 25/59/19 16/60/19 5/61/19 19/62/19
f 9/63/20 25/59/20 19/62/20 1/64/20
f 8/32/21 14/65/21 26/66/21 17/33/21
f 14/67/22 4/68/22 11/69/22 26/70/22
f 26/71/23 11/7/23 2/6/23 20/72/23
f 17/36/24 26/71/24 20/72/24 6/37/24
o TentacleLeft03
v 0.331661 1.600549 0.249897
v 0.325166 1.636451 -0.220775
v -0.140378 1.600549 0.256412
v -0.146873 1.636451 -0.214260
v 0.331166 1.129833 0.213998
v 0.324670 1.165735 -0.256673
v -0.140873 1.129833 0.220513
v -0.147368 1.165735 -0.250159
v 0.263004 1.634539 -1.070819
v -0.108192 1.634539 -1.065696
v -0.106462 1.285131 -0.940302
v 0.264734 1.285131 -0.945424
v 0.183853 1.274813 -1.823331
v -0.049838 1.274813 -1.820106
v -0.050391 1.044562 -1.860179
v 0.183300 1.044562 -1.863404
v 0.139200 1.340881 -2.462004
v -0.022826 1.340881 -2.459768
v -0.024161 1.210880 -2.556491
v 0.137865 1.210880 -2.558727
v 0.101446 1.635203 -2.925234
v 0.002130 1.635203 -2.923863
v 0.000824 1.605081 -3.018502
v 0.100140 1.605081 -3.019872
v 0.079357 2.199687 -3.124886
v 0.018701 2.199687 -3.124049
v 0.017903 2.181290 -3.181848
v 0.078560 2.181290 -3.182685
vn 0.0010 0.9971 0.0760
vn -0.9999 -0.0000 0.0138
vn -0.0010 -0.9971 -0.0760
vn 0.9999 -0.0000 -0.0138
vn 0.0138 -0.0761 0.9970
vn -0.0000 1.0000 -0.0022
vn 0.9957 -0.0115 -0.0916
vn 0.9968 -0.0072 -0.0796
vn -0.9986 -0.0072 -0.0521
vn -0.0024 -0.9853 -0.1706
vn -0.0032 -0.9726 -0.2324
vn -0.9979 -0.0115 -0.0641
vn 0.0035 -0.9674 0.2532
vn -0.0059 0.9024 -0.4308
vn 0.9979 0.0428 -0.0496
vn 0.0014 0.9947 0.1028
vn 0.9978 0.0191 -0.0641
vn -0.9992 0.0191 -0.0365
vn -0.9995 0.0308 0.0040
vn -0.9988 0.0428 -0.0220
vn -0.0090 -0.7605 -0.6493
vn 0.0074 0.8443 0.5358
vn -0.0042 0.9529 -0.3032
vn -0.0133 -0.2723 -0.9621
vn 0.0130 0.3339 0.9425
vn 0.9992 0.0308 -0.0236
vt 0.369830 0.664525
vt 0.369830 0.702414
vt 0.331941 0.702414
vt 0.331941 0.664525
vt 0.517163 0.668264
vt 0.513424 0.705968
vt 0.475720 0.702229
vt 0.479459 0.664525
vt 0.331830 0.664525
vt 0.331830 0.702414
vt 0.293941 0.702414
vt 0.293941 0.664525
vt 0.407644 0.664525
vt 0.411383 0.702229
vt 0.373679 0.705968
vt 0.369940 0.668264
vt 0.555163 0.664525
vt 0.555163 0.702414
vt 0.517274 0.702414
vt 0.517274 0.664525
vt 0.365783 0.770700
vt 0.335988 0.770700
vt 0.385718 0.773306
vt 0.411595 0.758537
vt 0.443496 0.828006
vt 0.424739 0.828069
vt 0.501385 0.773306
vt 0.475509 0.758537
vt 0.327783 0.758577
vt 0.297989 0.758577
vt 0.303507 0.834821
vt 0.322265 0.834821
vt 0.319389 0.892245
vt 0.306383 0.892245
vt 0.462364 0.828069
vt 0.443607 0.828006
vt 0.360264 0.837716
vt 0.341507 0.837716
vt 0.428484 0.879590
vt 0.440118 0.885403
vt 0.415445 0.927489
vt 0.411725 0.920438
vt 0.357388 0.889293
vt 0.344383 0.889293
vt 0.458619 0.879590
vt 0.446985 0.885403
vt 0.471658 0.927489
vt 0.475378 0.920438
vt 0.517163 0.944238
vt 0.514891 0.948544
vt 0.316872 0.940965
vt 0.308900 0.940965
vt 0.354871 0.933373
vt 0.346899 0.933373
vt 0.517274 0.702524
vt 0.522142 0.702524
vt 0.522142 0.707393
vt 0.517274 0.707393
vt 0.315320 0.989028
vt 0.310452 0.989028
vt 0.353320 0.981436
vt 0.348451 0.981436
vt 0.372212 0.948544
vt 0.369940 0.944238
s 0
usemtl Material.003
f 27/73/25 28/74/25 30/75/25 29/76/25
f 29/77/26 30/78/26 34/79/26 33/80/26
f 33/81/27 34/82/27 32/83/27 31/84/27
f 31/85/28 32/86/28 28/87/28 27/88/28
f 29/89/29 33/90/29 31/91/29 27/92/29
f 30/75/30 28/74/30 35/93/30 36/94/30
f 35/95/31 38/96/31 42/97/31 39/98/31
f 28/87/32 32/86/32 38/96/32 35/95/32
f 34/79/33 30/78/33 36/99/33 37/100/33
f 32/83/34 34/82/34 37/101/34 38/102/34
f 42/103/35 41/104/35 45/105/35 46/106/35
f 37/100/36 36/99/36 40/107/36 41/108/36
f 38/102/37 37/101/37 41/104/37 42/103/37
f 36/94/38 35/93/38 39/109/38 40/110/38
f 43/111/39 46/112/39 50/113/39 47/114/39
f 40/110/40 39/109/40 43/115/40 44/116/40
f 39/98/41 42/97/41 46/112/41 43/111/41
f 41/108/42 40/107/42 44/117/42 45/118/42
f 49/119/43 48/120/43 52/121/43 53/122/43
f 45/118/44 44/117/44 48/120/44 49/119/44
f 46/106/45 45/105/45 49/123/45 50/124/45
f 44/116/46 43/115/46 47/125/46 48/126/46
f 53/127/47 52/128/47 51/129/47 54/130/47
f 50/124/48 49/123/48 53/131/48 54/132/48
f 48/126/49 47/125/49 51/133/49 52/134/49
f 47/114/50 50/113/50 54/135/50 51/136/50
o TentacleRight02
v -0.263686 0.937883 0.325118
v -0.472510 0.942902 0.339340
v -0.255936 1.142967 0.366540
v -0.464760 1.147985 0.380762
v -0.276624 0.979724 0.120381
v -0.485448 0.984743 0.134603
v -0.268874 1.184808 0.161803
v -0.477698 1.189827 0.176025
v -0.848712 0.979729 0.340429
v -0.842618 1.141000 0.373002
v -0.784838 1.169422 0.221475
v -0.790932 1.008151 0.188902
v -1.179240 1.054166 0.187863
v -1.175403 1.155696 0.208370
v -1.191710 1.176553 0.108157
v -1.195546 1.075023 0.087650
v -1.462343 1.075033 0.217848
v -1.459683 1.145428 0.232066
v -1.501729 1.158489 0.175266
v -1.504389 1.088094 0.161048
v -1.669178 1.070924 0.347183
v -1.667547 1.114074 0.355898
v -1.709301 1.118352 0.342524
v -1.710931 1.075203 0.333809
v -1.761027 1.033360 0.593684
v -1.760031 1.059713 0.599007
v -1.785532 1.062326 0.590839
v -1.786528 1.035973 0.585517
vn 0.0618 -0.1998 0.9779
vn 0.0370 0.9795 0.1978
vn -0.0618 0.1998 -0.9779
vn -0.0370 -0.9795 -0.1978
vn 0.9974 -0.0240 -0.0679
vn -0.0165 -0.1974 0.9802
vn -0.1145 -0.9712 -0.2090
vn -0.1027 -0.9734 -0.2049
vn -0.0288 0.9814 0.1899
vn -0.1565 0.2012 -0.9670
vn -0.2184 0.2011 -0.9549
vn -0.0407 0.9818 0.1855
vn 0.2668 0.1811 -0.9466
vn -0.4433 -0.1613 0.8817
vn -0.0734 -0.9851 -0.1558
vn 0.0886 -0.2004 0.9757
vn -0.0875 -0.9799 -0.1792
vn -0.0136 0.9763 0.2159
vn 0.0268 0.9733 0.2278
vn 0.0006 0.9710 0.2393
vn -0.6381 0.1755 -0.7497
vn 0.5234 -0.1877 0.8311
vn -0.3166 -0.1763 0.9320
vn -0.9576 0.0914 -0.2733
vn 0.9371 -0.1028 0.3335
vn -0.0472 -0.9847 -0.1677
vt 0.385024 0.051606
vt 0.384360 0.086001
vt 0.350013 0.086955
vt 0.349680 0.051606
vt 0.258837 0.068803
vt 0.255312 0.104348
vt 0.219767 0.100823
vt 0.223292 0.065278
vt 0.119126 0.065278
vt 0.119126 0.100998
vt 0.083407 0.100998
vt 0.083407 0.065278
vt 0.189407 0.066379
vt 0.188307 0.101231
vt 0.153891 0.099673
vt 0.154555 0.065278
vt 0.294642 0.065278
vt 0.294642 0.100998
vt 0.258922 0.100998
vt 0.258922 0.065278
vt 0.384606 0.145592
vt 0.357286 0.149804
vt 0.154138 0.159264
vt 0.179694 0.152947
vt 0.185738 0.227438
vt 0.167936 0.223177
vt 0.243962 0.167831
vt 0.219567 0.153908
vt 0.115311 0.153945
vt 0.087222 0.153945
vt 0.092425 0.225825
vt 0.110108 0.225825
vt 0.107397 0.279961
vt 0.095136 0.279961
vt 0.207176 0.219459
vt 0.189492 0.219400
vt 0.398404 0.209505
vt 0.378935 0.212532
vt 0.165482 0.278127
vt 0.176657 0.283532
vt 0.158262 0.328019
vt 0.153096 0.322433
vt 0.395951 0.264455
vt 0.383122 0.263309
vt 0.203645 0.268030
vt 0.192677 0.273510
vt 0.215937 0.313187
vt 0.219444 0.306540
vt 0.258837 0.328977
vt 0.256695 0.333037
vt 0.105024 0.325891
vt 0.097509 0.325891
vt 0.383565 0.308761
vt 0.376484 0.305891
vt 0.258922 0.101083
vt 0.263512 0.101083
vt 0.263512 0.105673
vt 0.258922 0.105673
vt 0.103561 0.371203
vt 0.098971 0.371203
vt 0.357538 0.345891
vt 0.354101 0.343670
vt 0.130623 0.362248
vt 0.127069 0.359563
s 0
usemtl Material.004
f 55/137/51 57/140/51 58/139/51 56/138/51
f 57/141/52 61/144/52 62/143/52 58/142/52
f 61/145/53 59/148/53 60/147/53 62/146/53
f 59/149/54 55/152/54 56/151/54 60/150/54
f 57/153/55 55/156/55 59/155/55 61/154/55
f 58/139/56 64/158/56 63/157/56 56/138/56
f 63/159/57 67/162/57 70/161/57 66/160/57
f 56/151/58 63/159/58 66/160/58 60/150/58
f 62/143/59 65/164/59 64/163/59 58/142/59
f 60/147/60 66/166/60 65/165/60 62/146/60
f 70/167/61 74/170/61 73/169/61 69/168/61
f 65/164/62 69/172/62 68/171/62 64/163/62
f 66/166/63 70/167/63 69/168/63 65/165/63
f 64/158/64 68/174/64 67/173/64 63/157/64
f 71/175/65 75/178/65 78/177/65 74/176/65
f 68/174/66 72/180/66 71/179/66 67/173/66
f 67/162/67 71/175/67 74/176/67 70/161/67
f 69/172/68 73/182/68 72/181/68 68/171/68
f 77/183/69 81/186/69 80/185/69 76/184/69
f 73/182/70 77/183/70 76/184/70 72/181/70
f 74/170/71 78/188/71 77/187/71 73/169/71
f 72/180/72 76/190/72 75/189/72 71/179/72
f 81/191/73 82/194/73 79/193/73 80/192/73
f 78/188/74 82/196/74 81/195/74 77/187/74
f 76/190/75 80/198/75 79/197/75 75/189/75
f 75/178/76 79/200/76 82/199/76 78/177/76
o TentacleLeft01
v 0.267545 1.489013 0.322167
v 0.467942 1.504293 0.380846
v 0.233720 1.685340 0.386563
v 0.434116 1.700620 0.445242
v 0.317869 1.560129 0.131785
v 0.518265 1.575409 0.190464
v 0.284044 1.756456 0.196181
v 0.484440 1.771736 0.254860
v 0.831489 1.562752 0.466291
v 0.804890 1.717137 0.516930
v 0.776652 1.763277 0.361429
v 0.803251 1.608892 0.310790
v 1.178236 1.677447 0.397900
v 1.161490 1.774642 0.429780
v 1.195819 1.810413 0.338754
v 1.212565 1.713218 0.306874
v 1.446523 1.710542 0.489599
v 1.434913 1.777930 0.511702
v 1.486261 1.801368 0.467220
v 1.497872 1.733979 0.445116
v 1.622524 1.700376 0.658257
v 1.615407 1.741683 0.671806
v 1.658464 1.750272 0.668236
v 1.665581 1.708965 0.654687
v 1.665610 1.633758 0.911864
v 1.661263 1.658986 0.920138
v 1.687560 1.664232 0.917958
v 1.691907 1.639004 0.909683
vn -0.2404 -0.3397 0.9093
vn -0.1616 0.9377 0.3076
vn 0.2404 0.3397 -0.9093
vn 0.1616 -0.9377 -0.3076
vn -0.9571 -0.0730 -0.2803
vn -0.1647 -0.3329 0.9285
vn 0.2387 -0.9233 -0.3009
vn 0.2265 -0.9268 -0.2997
vn -0.0959 0.9445 0.3141
vn 0.3304 0.3451 -0.8785
vn 0.3884 0.3469 -0.8537
vn -0.0834 0.9463 0.3124
vn -0.0849 0.2973 -0.9510
vn 0.2684 -0.2582 0.9281
vn 0.1890 -0.9470 -0.2598
vn -0.2660 -0.3415 0.9015
vn 0.2070 -0.9378 -0.2788
vn -0.1156 0.9349 0.3354
vn -0.1571 0.9279 0.3380
vn -0.1336 0.9255 0.3544
vn 0.7585 0.3174 -0.5691
vn -0.6621 -0.3341 0.6708
vn 0.1360 -0.2875 0.9481
vn 0.9813 0.1856 -0.0504
vn -0.9726 -0.2042 0.1116
vn 0.1659 -0.9465 -0.2768
vt 0.130331 0.410602
vt 0.130331 0.435501
vt 0.105433 0.435501
vt 0.105433 0.410602
vt 0.583965 0.136221
vt 0.581508 0.160998
vt 0.556731 0.158541
vt 0.559188 0.133764
vt 0.105360 0.410602
vt 0.105360 0.435501
vt 0.080462 0.435501
vt 0.080462 0.410602
vt 0.155181 0.410602
vt 0.157638 0.435379
vt 0.132861 0.437836
vt 0.130404 0.413059
vt 0.252122 0.410602
vt 0.252122 0.435501
vt 0.227224 0.435501
vt 0.227224 0.410602
vt 0.127672 0.480375
vt 0.108092 0.480375
vt 0.140773 0.482088
vt 0.157777 0.472382
vt 0.178741 0.518034
vt 0.166415 0.518075
vt 0.573596 0.205250
vt 0.556592 0.195544
vt 0.102701 0.472408
vt 0.083121 0.472408
vt 0.086748 0.522512
vt 0.099074 0.522512
vt 0.097184 0.560248
vt 0.088638 0.560248
vt 0.547954 0.241237
vt 0.535627 0.241196
vt 0.124045 0.524414
vt 0.111719 0.524414
vt 0.168876 0.551932
vt 0.176521 0.555752
vt 0.160308 0.583408
vt 0.157863 0.578775
vt 0.122155 0.558308
vt 0.113609 0.558308
vt 0.545493 0.275094
vt 0.537848 0.278914
vt 0.554061 0.306570
vt 0.556506 0.301937
vt 0.583965 0.317577
vt 0.582472 0.320407
vt 0.095530 0.592264
vt 0.090292 0.592264
vt 0.120501 0.587275
vt 0.115263 0.587275
vt 0.227224 0.435573
vt 0.230423 0.435573
vt 0.230423 0.438773
vt 0.227224 0.438773
vt 0.094511 0.623849
vt 0.091311 0.623849
vt 0.119482 0.618860
vt 0.116282 0.618860
vt 0.131897 0.597245
vt 0.130404 0.594415
s 0
usemtl Material.012
f 83/201/77 84/202/77 86/203/77 85/204/77
f 85/205/78 86/206/78 90/207/78 89/208/78
f 89/209/79 90/210/79 88/211/79 87/212/79
f 87/213/80 88/214/80 84/215/80 83/216/80
f 85/217/81 89/218/81 87/219/81 83/220/81
f 86/203/82 84/202/82 91/221/82 92/222/82
f 91/223/83 94/224/83 98/225/83 95/226/83
f 84/215/84 88/214/84 94/224/84 91/223/84
f 90/207/85 86/206/85 92/227/85 93/228/85
f 88/211/86 90/210/86 93/229/86 94/230/86
f 98/231/87 97/232/87 101/233/87 102/234/87
f 93/228/88 92/227/88 96/235/88 97/236/88
f 94/230/89 93/229/89 97/232/89 98/231/89
f 92/222/90 91/221/90 95/237/90 96/238/90
f 99/239/91 102/240/91 106/241/91 103/242/91
f 96/238/92 95/237/92 99/243/92 100/244/92
f 95/226/93 98/225/93 102/240/93 99/239/93
f 97/236/94 96/235/94 100/245/94 101/246/94
f 105/247/95 104/248/95 108/249/95 109/250/95
f 101/246/96 100/245/96 104/248/96 105/247/96
f 102/234/97 101/233/97 105/251/97 106/252/97
f 100/244/98 99/243/98 103/253/98 104/254/98
f 109/255/99 108/256/99 107/257/99 110/258/99
f 106/252/100 105/251/100 109/259/100 110/260/100
f 104/254/101 103/253/101 107/261/101 108/262/101
f 103/242/102 106/241/102 110/263/102 107/264/102
o TentacleRight01
v -0.097629 1.489013 0.326497
v -0.296577 1.504292 0.389910
v -0.062286 1.685340 0.390073
v -0.261235 1.700619 0.453486
v -0.152452 1.560129 0.137362
v -0.351401 1.575409 0.200775
v -0.117110 1.756456 0.200938
v -0.316058 1.771735 0.264351
v -0.657997 1.562751 0.483951
v -0.630204 1.717136 0.533945
v -0.605662 1.763276 0.377819
v -0.633454 1.608891 0.327825
v -1.006269 1.677445 0.423800
v -0.988772 1.774640 0.455274
v -1.025248 1.810411 0.365088
v -1.042745 1.713217 0.333614
v -1.272306 1.710540 0.521834
v -1.260175 1.777929 0.543656
v -1.312563 1.801366 0.500404
v -1.324695 1.733977 0.478582
v -1.444258 1.700374 0.694618
v -1.436822 1.741680 0.707994
v -1.479952 1.750270 0.705446
v -1.487388 1.708963 0.692070
v -1.481319 1.633756 0.949175
v -1.476778 1.658984 0.957344
v -1.503119 1.664230 0.955788
v -1.507660 1.639002 0.947619
vn 0.2619 -0.3397 0.9034
vn 0.1688 0.9377 0.3037
vn -0.2619 0.3397 -0.9034
vn -0.1688 -0.9377 -0.3037
vn 0.9502 -0.0730 -0.3029
vn 0.1867 -0.3329 0.9243
vn -0.2458 -0.9233 -0.2951
vn -0.2335 -0.9268 -0.2943
vn 0.1033 0.9445 0.3117
vn -0.3511 0.3451 -0.8704
vn -0.4085 0.3469 -0.8442
vn 0.0908 0.9463 0.3103
vn 0.0623 0.2973 -0.9527
vn -0.2464 -0.2582 0.9342
vn -0.1951 -0.9470 -0.2553
vn 0.2873 -0.3415 0.8949
vn -0.2136 -0.9378 -0.2738
vn 0.1235 0.9349 0.3326
vn 0.1651 0.9279 0.3342
vn 0.1420 0.9255 0.3511
vn -0.7718 0.3174 -0.5510
vn 0.6778 -0.3341 0.6549
vn -0.1134 -0.2875 0.9510
vn -0.9823 0.1856 -0.0271
vn 0.9749 -0.2042 0.0885
vn -0.1724 -0.9465 -0.2728
vt 0.130331 0.410602
vt 0.105433 0.410602
vt 0.105433 0.435501
vt 0.130331 0.435501
vt 0.583965 0.136221
vt 0.559188 0.133764
vt 0.556731 0.158541
vt 0.581508 0.160998
vt 0.105360 0.410602
vt 0.080462 0.410602
vt 0.080462 0.435501
vt 0.105360 0.435501
vt 0.155181 0.410602
vt 0.130404 0.413059
vt 0.132861 0.437836
vt 0.157638 0.435379
vt 0.252122 0.410602
vt 0.227224 0.410602
vt 0.227224 0.435501
vt 0.252122 0.435501
vt 0.108092 0.480375
vt 0.127672 0.480375
vt 0.140773 0.482088
vt 0.166415 0.518075
vt 0.178741 0.518034
vt 0.157777 0.472382
vt 0.556592 0.195544
vt 0.573596 0.205250
vt 0.083121 0.472408
vt 0.102701 0.472408
vt 0.086748 0.522512
vt 0.088638 0.560248
vt 0.097184 0.560248
vt 0.099074 0.522512
vt 0.535627 0.241196
vt 0.547954 0.241237
vt 0.111719 0.524414
vt 0.124045 0.524414
vt 0.168876 0.551932
vt 0.157863 0.578775
vt 0.160308 0.583408
vt 0.176521 0.555752
vt 0.113609 0.558308
vt 0.122155 0.558308
vt 0.537848 0.278914
vt 0.545493 0.275094
vt 0.554061 0.306570
vt 0.582472 0.320407
vt 0.583965 0.317577
vt 0.556506 0.301937
vt 0.090292 0.592264
vt 0.095530 0.592264
vt 0.115263 0.587275
vt 0.120501 0.587275
vt 0.227224 0.435573
vt 0.227224 0.438773
vt 0.230423 0.438773
vt 0.230423 0.435573
vt 0.091311 0.623849
vt 0.094511 0.623849
vt 0.116282 0.618860
vt 0.119482 0.618860
vt 0.130404 0.594415
vt 0.131897 0.597245
s 0
usemtl Material.012
f 111/265/103 113/266/103 114/267/103 112/268/103
f 113/269/104 117/270/104 118/271/104 114/272/104
f 117/273/105 115/274/105 116/275/105 118/276/105
f 115/277/106 111/278/106 112/279/106 116/280/106
f 113/281/107 111/282/107 115/283/107 117/284/107
f 114/267/108 120/285/108 119/286/108 112/268/108
f 119/287/109 123/288/109 126/289/109 122/290/109
f 112/279/110 119/287/110 122/290/110 116/280/110
f 118/271/111 121/291/111 120/292/111 114/272/111
f 116/275/112 122/293/112 121/294/112 118/276/112
f 126/295/113 130/296/113 129/297/113 125/298/113
f 121/291/114 125/299/114 124/300/114 120/292/114
f 122/293/115 126/295/115 125/298/115 121/294/115
f 120/285/116 124/301/116 123/302/116 119/286/116
f 127/303/117 131/304/117 134/305/117 130/306/117
f 124/301/118 128/307/118 127/308/118 123/302/118
f 123/288/119 127/303/119 130/306/119 126/289/119
f 125/299/120 129/309/120 128/310/120 124/300/120
f 133/311/121 137/312/121 136/313/121 132/314/121
f 129/309/122 133/311/122 132/314/122 128/310/122
f 130/296/123 134/315/123 133/316/123 129/297/123
f 128/307/124 132/317/124 131/318/124 127/308/124
f 137/319/125 138/320/125 135/321/125 136/322/125
f 134/315/126 138/323/126 137/324/126 133/316/126
f 132/317/127 136/325/127 135/326/127 131/318/127
f 131/304/128 135/327/128 138/328/128 134/305/128
o TentacleLeft02
v 0.433526 0.937883 0.316851
v 0.642629 0.942902 0.326118
v 0.426760 1.142967 0.358446
v 0.635863 1.147985 0.367713
v 0.441606 0.979724 0.111865
v 0.650709 0.984743 0.121132
v 0.434840 1.184808 0.153460
v 0.643944 1.189827 0.162727
v 1.018751 0.979729 0.318287
v 1.013430 1.141000 0.350996
v 0.952074 1.169422 0.200882
v 0.957394 1.008151 0.168173
v 1.345569 1.054166 0.157928
v 1.342219 1.155696 0.178520
v 1.356145 1.176553 0.077948
v 1.359494 1.075023 0.057356
v 1.629303 1.075033 0.181192
v 1.626981 1.145428 0.195469
v 1.667668 1.158489 0.137688
v 1.669990 1.088094 0.123411
v 1.839146 1.070924 0.305586
v 1.837723 1.114073 0.314337
v 1.879147 1.118352 0.299978
v 1.880571 1.075203 0.291226
v 1.936814 1.033360 0.549841
v 1.935945 1.059713 0.555186
v 1.961244 1.062326 0.546416
v 1.962114 1.035973 0.541071
vn -0.0386 -0.1998 0.9791
vn -0.0323 0.9795 0.1987
vn 0.0386 0.1998 -0.9791
vn 0.0323 -0.9795 -0.1987
vn -0.9987 -0.0240 -0.0443
vn 0.0397 -0.1974 0.9795
vn 0.1095 -0.9712 -0.2116
vn 0.0978 -0.9734 -0.2073
vn 0.0333 0.9814 0.1892
vn 0.1335 0.2012 -0.9704
vn 0.1957 0.2011 -0.9598
vn 0.0451 0.9818 0.1845
vn -0.2892 0.1811 -0.9400
vn 0.4641 -0.1613 0.8710
vn 0.0696 -0.9851 -0.1575
vn -0.0654 -0.2004 0.9775
vn 0.0832 -0.9799 -0.1812
vn 0.0187 0.9763 0.2156
vn -0.0214 0.9733 0.2284
vn 0.0051 0.9710 0.2392
vn 0.6201 0.1755 -0.7646
vn -0.5036 -0.1877 0.8433
vn 0.3386 -0.1763 0.9243
vn 0.9508 0.0914 -0.2960
vn -0.9290 -0.1028 0.3556
vn 0.0432 -0.9847 -0.1687
vt 0.385024 0.051606
vt 0.349680 0.051606
vt 0.350013 0.086955
vt 0.384360 0.086001
vt 0.258837 0.068803
vt 0.223292 0.065278
vt 0.219767 0.100823
vt 0.255312 0.104348
vt 0.119126 0.065278
vt 0.083407 0.065278
vt 0.083407 0.100998
vt 0.119126 0.100998
vt 0.189407 0.066379
vt 0.154555 0.065278
vt 0.153891 0.099673
vt 0.188307 0.101231
vt 0.294642 0.065278
vt 0.258922 0.065278
vt 0.258922 0.100998
vt 0.294642 0.100998
vt 0.357286 0.149804
vt 0.384606 0.145592
vt 0.154138 0.159264
vt 0.167936 0.223177
vt 0.185738 0.227438
vt 0.179694 0.152947
vt 0.219567 0.153908
vt 0.243962 0.167831
vt 0.087222 0.153945
vt 0.115311 0.153945
vt 0.092425 0.225825
vt 0.095136 0.279961
vt 0.107397 0.279961
vt 0.110108 0.225825
vt 0.189492 0.219400
vt 0.207176 0.219459
vt 0.378935 0.212532
vt 0.398404 0.209505
vt 0.165482 0.278127
vt 0.153096 0.322433
vt 0.158262 0.328019
vt 0.176657 0.283532
vt 0.383122 0.263309
vt 0.395951 0.264455
vt 0.192677 0.273510
vt 0.203645 0.268030
vt 0.215937 0.313187
vt 0.256695 0.333037
vt 0.258837 0.328977
vt 0.219444 0.306540
vt 0.097509 0.325891
vt 0.105024 0.325891
vt 0.376484 0.305891
vt 0.383565 0.308761
vt 0.258922 0.101083
vt 0.258922 0.105673
vt 0.263512 0.105673
vt 0.263512 0.101083
vt 0.098971 0.371203
vt 0.103561 0.371203
vt 0.354101 0.343670
vt 0.357538 0.345891
vt 0.127069 0.359563
vt 0.130623 0.362248
s 0
usemtl Material.004
f 139/329/129 140/332/129 142/331/129 141/330/129
f 141/333/130 142/336/130 146/335/130 145/334/130
f 145/337/131 146/340/131 144/339/131 143/338/131
f 143/341/132 144/344/132 140/343/132 139/342/132
f 141/345/133 145/348/133 143/347/133 139/346/133
f 142/331/134 140/332/134 147/350/134 148/349/134
f 147/351/135 150/354/135 154/353/135 151/352/135
f 140/343/136 144/344/136 150/354/136 147/351/136
f 146/335/137 142/336/137 148/356/137 149/355/137
f 144/339/138 146/340/138 149/358/138 150/357/138
f 154/359/139 153/362/139 157/361/139 158/360/139
f 149/355/140 148/356/140 152/364/140 153/363/140
f 150/357/141 149/358/141 153/362/141 154/359/141
f 148/349/142 147/350/142 151/366/142 152/365/142
f 155/367/143 158/370/143 162/369/143 159/368/143
f 152/365/144 151/366/144 155/372/144 156/371/144
f 151/352/145 154/353/145 158/370/145 155/367/145
f 153/363/146 152/364/146 156/374/146 157/373/146
f 161/375/147 160/378/147 164/377/147 165/376/147
f 157/373/148 156/374/148 160/378/148 161/375/148
f 158/360/149 157/361/149 161/380/149 162/379/149
f 156/371/150 155/372/150 159/382/150 160/381/150
f 165/383/151 164/386/151 163/385/151 166/384/151
f 162/379/152 161/380/152 165/388/152 166/387/152
f 160/381/153 159/382/153 163/390/153 164/389/153
f 159/368/154 162/369/154 166/392/154 163/391/154
